<svg width="800" height="600" xmlns="http://www.w3.org/2000/svg">
  <!-- Background -->
  <rect width="800" height="600" fill="#f8f9fa" stroke="#dee2e6" stroke-width="2"/>
  
  <!-- Header -->
  <rect x="0" y="0" width="800" height="60" fill="#343a40"/>
  <text x="20" y="35" font-family="Arial, sans-serif" font-size="18" font-weight="bold" fill="white">π›’ μ¨λΌμΈ μ‡Όν•‘ μµμ €κ°€ κ²€μƒ‰ μ±—λ΄‡</text>
  
  <!-- Main Chat Area -->
  <rect x="20" y="80" width="760" height="420" fill="white" stroke="#dee2e6" stroke-width="1" rx="8"/>
  
  <!-- Chat Messages Area -->
  <text x="40" y="110" font-family="Arial, sans-serif" font-size="12" fill="#6c757d">μ±„ν… λ©”μ‹μ§€ μμ—­</text>
  
  <!-- User Message Bubble -->
  <rect x="450" y="130" width="300" height="40" fill="#007bff" stroke="#0056b3" stroke-width="1" rx="20"/>
  <text x="470" y="155" font-family="Arial, sans-serif" font-size="14" fill="white">λ…ΈνΈλ¶ μ¶©μ „κΈ° μµμ €κ°€ μ°Ύμ•„μ¤</text>
  
  <!-- Bot Message Bubble -->
  <rect x="50" y="190" width="350" height="80" fill="#f8f9fa" stroke="#dee2e6" stroke-width="1" rx="20"/>
  <text x="70" y="215" font-family="Arial, sans-serif" font-size="12" fill="#495057">π¤– κ²€μƒ‰ μ¤‘μ…λ‹λ‹¤...</text>
  <text x="70" y="235" font-family="Arial, sans-serif" font-size="12" fill="#495057">β€Ά λ„¤μ΄λ²„ μ‡Όν•‘ κ²€μƒ‰ μ¤‘</text>
  <text x="70" y="250" font-family="Arial, sans-serif" font-size="12" fill="#495057">β€Ά Exa κ²€μƒ‰ μ¤‘</text>
  <text x="70" y="265" font-family="Arial, sans-serif" font-size="12" fill="#495057">β€Ά κ°€κ²© μ •λ³΄ λ¶„μ„ μ¤‘</text>
  
  <!-- Result Message Bubble -->
  <rect x="50" y="290" width="500" height="160" fill="#d4edda" stroke="#c3e6cb" stroke-width="1" rx="20"/>
  <text x="70" y="315" font-family="Arial, sans-serif" font-size="14" font-weight="bold" fill="#155724">π’° μµμ €κ°€ κ²€μƒ‰ κ²°κ³Ό</text>
  
  <!-- Price Comparison Table -->
  <rect x="70" y="325" width="460" height="115" fill="white" stroke="#dee2e6" stroke-width="1" rx="4"/>
  
  <!-- Table Header -->
  <rect x="70" y="325" width="460" height="25" fill="#f8f9fa" stroke="#dee2e6" stroke-width="1"/>
  <text x="80" y="342" font-family="Arial, sans-serif" font-size="10" font-weight="bold" fill="#495057">μ‡Όν•‘λ°</text>
  <text x="150" y="342" font-family="Arial, sans-serif" font-size="10" font-weight="bold" fill="#495057">μ›κ°€</text>
  <text x="200" y="342" font-family="Arial, sans-serif" font-size="10" font-weight="bold" fill="#495057">ν• μΈκ°€</text>
  <text x="260" y="342" font-family="Arial, sans-serif" font-size="10" font-weight="bold" fill="#495057">ν• μΈμ¨</text>
  <text x="310" y="342" font-family="Arial, sans-serif" font-size="10" font-weight="bold" fill="#495057">λ°°μ†΅λΉ„</text>
  <text x="360" y="342" font-family="Arial, sans-serif" font-size="10" font-weight="bold" fill="#495057">μ΄μ•΅</text>
  <text x="420" y="342" font-family="Arial, sans-serif" font-size="10" font-weight="bold" fill="#495057">μ μ•½μ•΅</text>
  <text x="480" y="342" font-family="Arial, sans-serif" font-size="10" font-weight="bold" fill="#495057">κµ¬λ§¤</text>
  
  <!-- Table Rows -->
  <!-- Row 1 - Best Deal -->
  <rect x="70" y="350" width="460" height="30" fill="#d4edda" stroke="#c3e6cb" stroke-width="1"/>
  <text x="75" y="360" font-family="Arial, sans-serif" font-size="8" font-weight="bold" fill="#155724">π¥‡ μµμ €κ°€</text>
  <text x="80" y="375" font-family="Arial, sans-serif" font-size="10" fill="#495057">Cμ „μλ°</text>
  <text x="150" y="375" font-family="Arial, sans-serif" font-size="9" fill="#6c757d" text-decoration="line-through">50,000μ›</text>
  <text x="200" y="375" font-family="Arial, sans-serif" font-size="10" font-weight="bold" fill="#dc3545">39,900μ›</text>
  <rect x="260" y="365" width="25" height="15" fill="#dc3545" rx="3"/>
  <text x="268" y="374" font-family="Arial, sans-serif" font-size="8" fill="white">20%</text>
  <text x="310" y="375" font-family="Arial, sans-serif" font-size="9" fill="#28a745">λ¬΄λ£</text>
  <text x="360" y="375" font-family="Arial, sans-serif" font-size="10" font-weight="bold" fill="#dc3545">39,900μ›</text>
  <text x="420" y="375" font-family="Arial, sans-serif" font-size="9" fill="#28a745">-10,100μ›</text>
  <rect x="480" y="365" width="35" height="15" fill="#007bff" rx="3"/>
  <text x="490" y="374" font-family="Arial, sans-serif" font-size="8" fill="white">κµ¬λ§¤</text>
  
  <!-- Row 2 -->
  <line x1="70" y1="380" x2="530" y2="380" stroke="#dee2e6"/>
  <text x="80" y="395" font-family="Arial, sans-serif" font-size="10" fill="#495057">Bμ‡Όν•‘</text>
  <text x="150" y="395" font-family="Arial, sans-serif" font-size="9" fill="#6c757d" text-decoration="line-through">52,000μ›</text>
  <text x="200" y="395" font-family="Arial, sans-serif" font-size="10" fill="#495057">41,500μ›</text>
  <rect x="260" y="385" width="25" height="15" fill="#ffc107" rx="3"/>
  <text x="268" y="394" font-family="Arial, sans-serif" font-size="8" fill="white">20%</text>
  <text x="310" y="395" font-family="Arial, sans-serif" font-size="9" fill="#495057">2,500μ›</text>
  <text x="360" y="395" font-family="Arial, sans-serif" font-size="10" fill="#495057">44,000μ›</text>
  <text x="420" y="395" font-family="Arial, sans-serif" font-size="9" fill="#28a745">-8,000μ›</text>
  <rect x="480" y="385" width="35" height="15" fill="#007bff" rx="3"/>
  <text x="490" y="394" font-family="Arial, sans-serif" font-size="8" fill="white">κµ¬λ§¤</text>
  
  <!-- Row 3 -->
  <line x1="70" y1="400" x2="530" y2="400" stroke="#dee2e6"/>
  <text x="80" y="415" font-family="Arial, sans-serif" font-size="10" fill="#495057">Aλ§νΈ</text>
  <text x="150" y="415" font-family="Arial, sans-serif" font-size="9" fill="#6c757d" text-decoration="line-through">48,000μ›</text>
  <text x="200" y="415" font-family="Arial, sans-serif" font-size="10" fill="#495057">43,000μ›</text>
  <rect x="260" y="405" width="25" height="15" fill="#17a2b8" rx="3"/>
  <text x="268" y="414" font-family="Arial, sans-serif" font-size="8" fill="white">10%</text>
  <text x="310" y="415" font-family="Arial, sans-serif" font-size="9" fill="#28a745">λ¬΄λ£</text>
  <text x="360" y="415" font-family="Arial, sans-serif" font-size="10" fill="#495057">43,000μ›</text>
  <text x="420" y="415" font-family="Arial, sans-serif" font-size="9" fill="#28a745">-5,000μ›</text>
  <rect x="480" y="405" width="35" height="15" fill="#007bff" rx="3"/>
  <text x="490" y="414" font-family="Arial, sans-serif" font-size="8" fill="white">κµ¬λ§¤</text>
  
  <!-- Input Area -->
  <rect x="20" y="520" width="760" height="60" fill="white" stroke="#dee2e6" stroke-width="1" rx="8"/>
  
  <!-- Input Box -->
  <rect x="40" y="540" width="600" height="25" fill="white" stroke="#ced4da" stroke-width="1" rx="4"/>
  <text x="50" y="557" font-family="Arial, sans-serif" font-size="12" fill="#6c757d">λ©”μ‹μ§€λ¥Ό μ…λ ¥ν•μ„Έμ”...</text>
  
  <!-- Send Button -->
  <rect x="660" y="540" width="100" height="25" fill="#007bff" stroke="#0056b3" stroke-width="1" rx="4"/>
  <text x="695" y="557" font-family="Arial, sans-serif" font-size="12" font-weight="bold" fill="white">μ „μ†΅</text>
  
  <!-- Status Indicator -->
  <circle cx="740" cy="100" r="6" fill="#28a745"/>
  <text x="720" y="120" font-family="Arial, sans-serif" font-size="10" fill="#28a745">μ¨λΌμΈ</text>
  
  <!-- Sidebar Info -->
  <rect x="600" y="130" width="160" height="100" fill="#f8f9fa" stroke="#dee2e6" stroke-width="1" rx="4"/>
  <text x="610" y="150" font-family="Arial, sans-serif" font-size="12" font-weight="bold" fill="#495057">π’΅ μ‚¬μ© ν</text>
  <text x="610" y="170" font-family="Arial, sans-serif" font-size="10" fill="#6c757d">β€Ά κµ¬μ²΄μ μΈ μƒν’λ… μ…λ ¥</text>
  <text x="610" y="185" font-family="Arial, sans-serif" font-size="10" fill="#6c757d">β€Ά λΈλλ“λ… ν¬ν•¨ κ¶μ¥</text>
  <text x="610" y="200" font-family="Arial, sans-serif" font-size="10" fill="#6c757d">β€Ά κ°€κ²©λ€ ν•„ν„° κ°€λ¥</text>
  <text x="610" y="215" font-family="Arial, sans-serif" font-size="10" fill="#6c757d">β€Ά ν• μΈμ¨ μ μ •λ ¬ κ°€λ¥</text>
</svg> 